<svg xmlns="http://www.w3.org/2000/svg" width="256" height="256" viewBox="0 0 100 100"><rect width="100" height="100" rx="50" fill="#e85841"></rect><path d="M27.80 71L27.80 32.84L13.04 32.84L13.04 29L47.00 29L47.00 32.84L32.24 32.84L32.24 71L27.80 71ZM69.80 29Q77.84 29 82.40 32.84Q86.96 36.68 86.96 43.40L86.96 43.40Q86.96 50.12 82.40 53.93Q77.84 57.74 69.80 57.74L69.80 57.74L58.52 57.74L58.52 71L54.08 71L54.08 29L69.80 29ZM69.68 53.84Q75.92 53.84 79.22 51.11Q82.52 48.38 82.52 43.40L82.52 43.40Q82.52 38.30 79.22 35.57Q75.92 32.84 69.68 32.84L69.68 32.84L58.52 32.84L58.52 53.84L69.68 53.84Z" fill="#fff"></path></svg>